<?xml version="1.0" encoding="UTF-8"?>
<svg width="24px" height="24px" viewBox="0 0 24 24" version="1.1" xmlns="http://www.w3.org/2000/svg" xmlns:xlink="http://www.w3.org/1999/xlink">
    <title>ig2</title>
    <g id="Page-1" stroke="none" stroke-width="1" fill="none" fill-rule="evenodd">
        <g id="ig2" fill="#CA9640" fill-rule="nonzero">
            <path d="M21.1472056,0 L2.8527944,0 C1.2771459,0 0,1.27387284 0,2.84624826 L0,21.1537517 C0,22.7254725 1.2771459,24 2.8527944,24 L21.1472056,24 C22.7228541,24 24,22.7254725 24,21.1537517 L24,2.84624826 C24,1.27387284 22.7228541,0 21.1472056,0 L21.1472056,0 Z M17.2503068,3.74961132 C17.2503068,3.33589723 17.5861222,3.00008183 17.9998363,3.00008183 L20.2497341,3.00008183 C20.6641028,3.00008183 20.9999182,3.33589723 20.9999182,3.74961132 L20.9999182,5.99950904 C20.9999182,6.41387775 20.6641028,6.74969315 20.2497341,6.74969315 L17.9998363,6.74969315 C17.5861222,6.74969315 17.2503068,6.41387775 17.2503068,5.99950904 L17.2503068,3.74961132 L17.2503068,3.74961132 Z M12.027821,7.42328778 C14.5768759,7.42328778 16.6434825,9.48531217 16.6434825,12.027821 C16.6434825,14.5709844 14.5768759,16.6323541 12.027821,16.6323541 C9.4794207,16.6323541 7.412814,14.5709844 7.412814,12.027821 C7.412814,9.48531217 9.4794207,7.42328778 12.027821,7.42328778 L12.027821,7.42328778 Z M21.7501023,20.9999182 C21.7501023,21.4136323 21.4142869,21.7501023 20.9999182,21.7501023 L3.0000818,21.7501023 C2.5857131,21.7501023 2.2498977,21.4136323 2.2498977,20.9999182 L2.2498977,9.74977498 L5.2499795,9.74977498 C4.8591768,10.3120858 4.7269454,11.3614271 4.7269454,12.027821 C4.7269454,16.0438589 8.0026184,19.3116766 12.027821,19.3116766 C16.0536781,19.3116766 19.3293511,16.0438589 19.3293511,12.027821 C19.3293511,11.3614271 19.2344325,10.3277964 18.7500205,9.74977498 L21.7501023,9.74977498 L21.7501023,20.9999182 L21.7501023,20.9999182 Z" id="Instagram-Copy"></path>
        </g>
    </g>
</svg>